<mxfile host="app.diagrams.net" agent="Mozilla/5.0 (Windows NT 10.0; Win64; x64) AppleWebKit/537.36 (KHTML, like Gecko) Chrome/133.0.0.0 Safari/537.36" version="26.0.16">
  <diagram name="Página-1" id="IgXxQrV5GpJ8-KjU-kRw">
    <mxGraphModel dx="1890" dy="746" grid="1" gridSize="10" guides="1" tooltips="1" connect="1" arrows="1" fold="1" page="1" pageScale="1" pageWidth="827" pageHeight="1169" math="0" shadow="0">
      <root>
        <mxCell id="0" />
        <mxCell id="1" parent="0" />
        <mxCell id="2" value="Aluno" style="whiteSpace=wrap;strokeWidth=2;" parent="1" vertex="1">
          <mxGeometry x="499" y="8" width="100" height="54" as="geometry" />
        </mxCell>
        <mxCell id="3" value="Moderador" style="whiteSpace=wrap;strokeWidth=2;" parent="1" vertex="1">
          <mxGeometry x="1957" y="8" width="136" height="54" as="geometry" />
        </mxCell>
        <mxCell id="4" value="Sistema" style="whiteSpace=wrap;strokeWidth=2;" parent="1" vertex="1">
          <mxGeometry x="2143" y="8" width="116" height="54" as="geometry" />
        </mxCell>
        <mxCell id="5" value="Cadastrar_Usuario" style="whiteSpace=wrap;strokeWidth=2;" parent="1" vertex="1">
          <mxGeometry x="2309" y="8" width="191" height="54" as="geometry" />
        </mxCell>
        <mxCell id="FTb7S93D3YRtJkN_TFdU-24" style="edgeStyle=orthogonalEdgeStyle;rounded=0;orthogonalLoop=1;jettySize=auto;html=1;exitX=0.5;exitY=1;exitDx=0;exitDy=0;" edge="1" parent="1" source="6">
          <mxGeometry relative="1" as="geometry">
            <mxPoint x="81.45454545454538" y="230" as="targetPoint" />
          </mxGeometry>
        </mxCell>
        <mxCell id="6" value="Fazer_Login" style="whiteSpace=wrap;strokeWidth=2;" parent="1" vertex="1">
          <mxGeometry x="8" y="116" width="146" height="54" as="geometry" />
        </mxCell>
        <mxCell id="7" value="Fazer_Logout" style="whiteSpace=wrap;strokeWidth=2;" parent="1" vertex="1">
          <mxGeometry x="2549" y="8" width="156" height="54" as="geometry" />
        </mxCell>
        <mxCell id="FTb7S93D3YRtJkN_TFdU-29" value="" style="edgeStyle=orthogonalEdgeStyle;rounded=0;orthogonalLoop=1;jettySize=auto;html=1;" edge="1" parent="1" source="8" target="FTb7S93D3YRtJkN_TFdU-26">
          <mxGeometry relative="1" as="geometry" />
        </mxCell>
        <mxCell id="8" value="Upload_de_Arquivo" style="whiteSpace=wrap;strokeWidth=2;" parent="1" vertex="1">
          <mxGeometry x="204" y="116" width="199" height="54" as="geometry" />
        </mxCell>
        <mxCell id="9" value="Download_de_Arquivo" style="whiteSpace=wrap;strokeWidth=2;" parent="1" vertex="1">
          <mxGeometry x="452" y="116" width="218" height="54" as="geometry" />
        </mxCell>
        <mxCell id="10" value="Avaliar_Arquivo" style="whiteSpace=wrap;strokeWidth=2;" parent="1" vertex="1">
          <mxGeometry x="721" y="116" width="171" height="54" as="geometry" />
        </mxCell>
        <mxCell id="11" value="Visualizar_Historico_de_Uploads_e_Downloads" style="whiteSpace=wrap;strokeWidth=2;" parent="1" vertex="1">
          <mxGeometry x="942" y="116" width="393" height="54" as="geometry" />
        </mxCell>
        <mxCell id="12" value="Moderador_Aprovar_Rejeitar_Arquivo" style="whiteSpace=wrap;strokeWidth=2;" parent="1" vertex="1">
          <mxGeometry x="1386" y="116" width="329" height="54" as="geometry" />
        </mxCell>
        <mxCell id="13" value="Consultar_Arquivos" style="whiteSpace=wrap;strokeWidth=2;" parent="1" vertex="1">
          <mxGeometry x="1764" y="116" width="197" height="54" as="geometry" />
        </mxCell>
        <mxCell id="14" value="Receber_Notificacao_de_Novos_Arquivos" style="whiteSpace=wrap;strokeWidth=2;" parent="1" vertex="1">
          <mxGeometry x="2011" y="116" width="353" height="54" as="geometry" />
        </mxCell>
        <mxCell id="15" value="Atribuir_Bonificacao_por_Upload" style="whiteSpace=wrap;strokeWidth=2;" parent="1" vertex="1">
          <mxGeometry x="2414" y="116" width="296" height="54" as="geometry" />
        </mxCell>
        <mxCell id="16" value="" style="curved=1;startArrow=none;endArrow=block;exitX=0;exitY=0.61;entryX=0.5;entryY=0;" parent="1" source="2" target="6" edge="1">
          <mxGeometry relative="1" as="geometry">
            <Array as="points">
              <mxPoint x="81" y="89" />
            </Array>
          </mxGeometry>
        </mxCell>
        <mxCell id="17" value="" style="curved=1;startArrow=none;endArrow=block;exitX=0;exitY=0.7;entryX=0.5;entryY=0;" parent="1" source="2" target="8" edge="1">
          <mxGeometry relative="1" as="geometry">
            <Array as="points">
              <mxPoint x="303" y="89" />
            </Array>
          </mxGeometry>
        </mxCell>
        <mxCell id="18" value="" style="curved=1;startArrow=none;endArrow=block;exitX=0.56;exitY=1;entryX=0.5;entryY=0;" parent="1" source="2" target="9" edge="1">
          <mxGeometry relative="1" as="geometry">
            <Array as="points">
              <mxPoint x="562" y="89" />
            </Array>
          </mxGeometry>
        </mxCell>
        <mxCell id="19" value="" style="curved=1;startArrow=none;endArrow=block;exitX=1;exitY=0.69;entryX=0.5;entryY=0;" parent="1" source="2" target="10" edge="1">
          <mxGeometry relative="1" as="geometry">
            <Array as="points">
              <mxPoint x="806" y="89" />
            </Array>
          </mxGeometry>
        </mxCell>
        <mxCell id="20" value="" style="curved=1;startArrow=none;endArrow=block;exitX=1;exitY=0.58;entryX=0.5;entryY=0;" parent="1" source="2" target="11" edge="1">
          <mxGeometry relative="1" as="geometry">
            <Array as="points">
              <mxPoint x="1139" y="89" />
            </Array>
          </mxGeometry>
        </mxCell>
        <mxCell id="21" value="" style="curved=1;startArrow=none;endArrow=block;exitX=0;exitY=0.64;entryX=0.5;entryY=0;" parent="1" source="3" target="12" edge="1">
          <mxGeometry relative="1" as="geometry">
            <Array as="points">
              <mxPoint x="1550" y="89" />
            </Array>
          </mxGeometry>
        </mxCell>
        <mxCell id="22" value="" style="curved=1;startArrow=none;endArrow=block;exitX=0;exitY=0.92;entryX=0.5;entryY=0;" parent="1" source="3" target="13" edge="1">
          <mxGeometry relative="1" as="geometry">
            <Array as="points">
              <mxPoint x="1863" y="89" />
            </Array>
          </mxGeometry>
        </mxCell>
        <mxCell id="23" value="" style="curved=1;startArrow=none;endArrow=block;exitX=1;exitY=0.92;entryX=0.5;entryY=0;" parent="1" source="3" target="14" edge="1">
          <mxGeometry relative="1" as="geometry">
            <Array as="points">
              <mxPoint x="2188" y="89" />
            </Array>
          </mxGeometry>
        </mxCell>
        <mxCell id="24" value="" style="curved=1;startArrow=none;endArrow=block;exitX=1;exitY=0.63;entryX=0.5;entryY=0;" parent="1" source="3" target="15" edge="1">
          <mxGeometry relative="1" as="geometry">
            <Array as="points">
              <mxPoint x="2562" y="89" />
            </Array>
          </mxGeometry>
        </mxCell>
        <mxCell id="FTb7S93D3YRtJkN_TFdU-32" value="" style="edgeStyle=orthogonalEdgeStyle;rounded=0;orthogonalLoop=1;jettySize=auto;html=1;" edge="1" parent="1" source="FTb7S93D3YRtJkN_TFdU-25" target="FTb7S93D3YRtJkN_TFdU-31">
          <mxGeometry relative="1" as="geometry" />
        </mxCell>
        <mxCell id="FTb7S93D3YRtJkN_TFdU-25" value="Logout" style="whiteSpace=wrap;strokeWidth=2;" vertex="1" parent="1">
          <mxGeometry x="8" y="240" width="146" height="54" as="geometry" />
        </mxCell>
        <mxCell id="FTb7S93D3YRtJkN_TFdU-30" value="" style="edgeStyle=orthogonalEdgeStyle;rounded=0;orthogonalLoop=1;jettySize=auto;html=1;" edge="1" parent="1" source="FTb7S93D3YRtJkN_TFdU-26" target="FTb7S93D3YRtJkN_TFdU-25">
          <mxGeometry relative="1" as="geometry" />
        </mxCell>
        <mxCell id="FTb7S93D3YRtJkN_TFdU-26" value="Download" style="whiteSpace=wrap;strokeWidth=2;" vertex="1" parent="1">
          <mxGeometry x="220" y="240" width="146" height="54" as="geometry" />
        </mxCell>
        <mxCell id="FTb7S93D3YRtJkN_TFdU-34" value="" style="edgeStyle=orthogonalEdgeStyle;rounded=0;orthogonalLoop=1;jettySize=auto;html=1;" edge="1" parent="1" source="FTb7S93D3YRtJkN_TFdU-31" target="FTb7S93D3YRtJkN_TFdU-33">
          <mxGeometry relative="1" as="geometry" />
        </mxCell>
        <mxCell id="FTb7S93D3YRtJkN_TFdU-31" value="Histórico" style="whiteSpace=wrap;strokeWidth=2;" vertex="1" parent="1">
          <mxGeometry x="8" y="370" width="146" height="54" as="geometry" />
        </mxCell>
        <mxCell id="FTb7S93D3YRtJkN_TFdU-33" value="Consulta" style="whiteSpace=wrap;strokeWidth=2;" vertex="1" parent="1">
          <mxGeometry x="8" y="470" width="146" height="54" as="geometry" />
        </mxCell>
      </root>
    </mxGraphModel>
  </diagram>
</mxfile>
